# xmcd
#
# Track frame offsets:
#	150
#	12853
#	25023
#	38386
#	55975
#	64938
#	75808
#	89420
#	102636
#	115422
#	124843
#	134383
#	146702
#	159293
#	170407
#	179150
#	195621
#	206810
#	219054
#	231561
#	245470
#
# Disc length: 3484 seconds
#
# Revision: 0
# Processed by: cddbd v1.5.1PL0 Copyright (c) Steve Scherf et al.
# Submitted via: dBpowerAMP V4.0
#
DISCID=260d9a15
DTITLE=Tony Acosta - Lo esencial
DYEAR=1900
DGENRE=Balada 60s.
TTITLE0=El amor no llega dos veces
TTITLE1=Son tantas cosas del amor
TTITLE2=Cosas de su edad
TTITLE3=Que sera, que sera
TTITLE4=Amamos
TTITLE5=Busco un amorcito
TTITLE6=Yo te amo Cristina
TTITLE7=Muchachita
TTITLE8=La Calle
TTITLE9=Que decepcion
TTITLE10=No camines sola
TTITLE11=So puedo vivir sin ti
TTITLE12=Un tonto paraq ti
TTITLE13=Quiero que me comprendas
TTITLE14=Cartas
TTITLE15=Mujercita
TTITLE16=No tengo tu amor
TTITLE17=Te quiero
TTITLE18=Dime lo que sientes
TTITLE19=Dentro de mi corazon
TTITLE20=La calle-Version nueva
EXTD=
EXTT0=
EXTT1=
EXTT2=
EXTT3=
EXTT4=
EXTT5=
EXTT6=
EXTT7=
EXTT8=
EXTT9=
EXTT10=
EXTT11=
EXTT12=
EXTT13=
EXTT14=
EXTT15=
EXTT16=
EXTT17=
EXTT18=
EXTT19=
EXTT20=
PLAYORDER=
